<?xml version="1.0" encoding="UTF-8" standalone="no"?>
<svg
   xmlns="http://www.w3.org/2000/svg"
   viewBox="0 0 560.81427 584.67798"
   width="560.81427"
   height="584.67798">
  <path
     d="m 224.00069,584.67797 c 35.32,0 63.97,-28.65 63.97,-64 h -127.94 c 0,35.35 28.65,64 63.97,64 z m 215.39,-149.71 c -19.32,-20.76 -55.47,-51.99 -55.47,-154.29 0,-77.7 -54.48,-139.9 -127.94,-155.16 v -20.84 c 0,-17.669999 -14.32,-31.999999 -31.98,-31.999999 -17.66,0 -31.98,14.33 -31.98,31.999999 v 20.84 c -73.46,15.26 -127.939999,77.46 -127.939999,155.16 0,102.3 -36.15,133.53 -55.4699996,154.29 -6,6.45 -8.66000001,14.16 -8.61000001194,21.71 0.11000000194,16.4 12.97999961194,32 32.09999961194,32 H 415.90069 c 19.12,0 32,-15.6 32.1,-32 0.05,-7.55 -2.61,-15.27 -8.61,-21.71 z"
     id="path2"
     style="fill:#ffffff;fill-opacity:1"
     inkscape:connector-curvature="0" />
  <circle
     style="opacity:1;fill:#ff6101;fill-opacity:1;fill-rule:nonzero;stroke:none;stroke-width:2.73459959;stroke-miterlimit:4;stroke-dasharray:none;stroke-opacity:1"
     id="path817"
     cx="471.86511"
     cy="88.949158"
     r="88.949158" />
</svg>
