<?xml version="1.0" encoding="UTF-8" standalone="no"?>
<!-- Created with Inkscape (http://www.inkscape.org/) -->

<svg
   xmlns:dc="http://purl.org/dc/elements/1.1/"
   xmlns:cc="http://creativecommons.org/ns#"
   xmlns:rdf="http://www.w3.org/1999/02/22-rdf-syntax-ns#"
   xmlns:svg="http://www.w3.org/2000/svg"
   xmlns="http://www.w3.org/2000/svg"
   xmlns:sodipodi="http://sodipodi.sourceforge.net/DTD/sodipodi-0.dtd"
   xmlns:inkscape="http://www.inkscape.org/namespaces/inkscape"
   width="81.579681mm"
   height="93.854774mm"
   version="1.1"
   viewBox="0 0 81.579681 93.854774"
   id="svg74"
   sodipodi:docname="logo.svg"
   inkscape:version="0.92.3 (2405546, 2018-03-11)">
  <metadata
     id="metadata80">
    <rdf:RDF>
      <cc:Work
         rdf:about="">
        <dc:format>image/svg+xml</dc:format>
        <dc:type
           rdf:resource="http://purl.org/dc/dcmitype/StillImage" />
      </cc:Work>
    </rdf:RDF>
  </metadata>
  <defs
     id="defs78" />
  <sodipodi:namedview
     pagecolor="#ffffff"
     bordercolor="#666666"
     borderopacity="1"
     objecttolerance="10"
     gridtolerance="10"
     guidetolerance="10"
     inkscape:pageopacity="0"
     inkscape:pageshadow="2"
     inkscape:window-width="944"
     inkscape:window-height="1011"
     id="namedview76"
     showgrid="false"
     inkscape:zoom="0.2102413"
     inkscape:cx="524.23375"
     inkscape:cy="-122.79766"
     inkscape:window-x="960"
     inkscape:window-y="0"
     inkscape:window-maximized="0"
     inkscape:current-layer="svg74" />
  <g
     id="g72"
     style="fill:#477597"
     transform="translate(-65.086741,-72.493998)">
    <ellipse
       cx="116.6"
       cy="119.67"
       rx="15.034"
       ry="13.631"
       id="ellipse2" />
    <ellipse
       transform="matrix(0.98998,0.14123,-0.21805,0.97594,0,0)"
       cx="149.00999"
       cy="93.385002"
       rx="7.8569002"
       ry="11.82"
       id="ellipse4" />
    <ellipse
       transform="matrix(1,-0.0020472,-0.069758,0.99756,0,0)"
       cx="136.91"
       cy="104.43"
       rx="7.1931"
       ry="11.815"
       id="ellipse6" />
    <ellipse
       transform="matrix(0.17122,0.98523,-0.99825,0.059098,0,0)"
       cx="89.183998"
       cy="-119.38"
       rx="4.3973999"
       ry="6.8130002"
       id="ellipse8" />
    <ellipse
       cx="129.83"
       cy="75.834"
       rx="1.4032"
       ry="2.9400001"
       id="ellipse10" />
    <ellipse
       cx="130.42999"
       cy="75.433998"
       rx="1.4032"
       ry="2.9400001"
       id="ellipse12" />
    <ellipse
       transform="matrix(0.33874,0.94088,-0.595,0.80373,0,0)"
       cx="188.28999"
       cy="-126.38"
       rx="0.76064998"
       ry="2.1754999"
       id="ellipse14" />
    <ellipse
       transform="matrix(1,-0.0020472,-0.069758,0.99756,0,0)"
       cx="137.07001"
       cy="95.189003"
       rx="7.1931"
       ry="11.815"
       id="ellipse16" />
    <ellipse
       transform="matrix(-0.72419,0.6896,-0.20207,-0.97937,0,0)"
       cx="-129.55"
       cy="-177.86"
       rx="5.1933999"
       ry="4.7293"
       id="ellipse18" />
    <ellipse
       cx="101.96"
       cy="120.89"
       rx="15.034"
       ry="13.253"
       id="ellipse20" />
    <ellipse
       cx="105.17"
       cy="113.79"
       rx="17.84"
       ry="8.6863003"
       id="ellipse22" />
    <ellipse
       transform="rotate(-4.5984)"
       cx="81.190002"
       cy="120.68"
       rx="17.84"
       ry="8.6863003"
       id="ellipse24" />
    <ellipse
       cx="79.044998"
       cy="122.21"
       rx="12.829"
       ry="12.294"
       id="ellipse26" />
    <ellipse
       transform="rotate(-17.015)"
       cx="41.397999"
       cy="130.96001"
       rx="8.9534998"
       ry="4.9445"
       id="ellipse28" />
    <ellipse
       transform="matrix(0.66521,0.74666,-0.35127,0.93628,0,0)"
       cx="122"
       cy="31.945999"
       rx="4.4186001"
       ry="10.318"
       id="ellipse30" />
    <ellipse
       cx="74.834999"
       cy="133.89999"
       rx="5.8799"
       ry="8.4857998"
       id="ellipse32" />
    <ellipse
       transform="matrix(0.92134,0.38876,-0.32839,0.94454,0,0)"
       cx="114.03"
       cy="106.08"
       rx="4.8807001"
       ry="7.5692"
       id="ellipse34" />
    <ellipse
       transform="matrix(0.99027,-0.13917,0.17413,0.98472,0,0)"
       cx="41.553001"
       cy="166.21001"
       rx="2.2867"
       ry="7.5580001"
       id="ellipse36" />
    <ellipse
       transform="matrix(0.98731,0.15882,0.11574,0.99328,0,0)"
       cx="52.366001"
       cy="145.60001"
       rx="2.6273"
       ry="5.1107001"
       id="ellipse38" />
    <ellipse
       transform="matrix(0.89273,0.45058,-0.27911,0.96026,0,0)"
       cx="111.06"
       cy="105.07"
       rx="2.6135001"
       ry="4.6206002"
       id="ellipse40" />
    <ellipse
       transform="matrix(0.91906,0.39412,-0.47268,0.88123,0,0)"
       cx="134.59"
       cy="96.450996"
       rx="3.9935999"
       ry="9.3466997"
       id="ellipse42" />
    <ellipse
       cx="111.72"
       cy="141.25"
       rx="5.2118001"
       ry="10.357"
       id="ellipse44" />
    <ellipse
       cx="113.66"
       cy="134.97"
       rx="4.3431001"
       ry="7.7508001"
       id="ellipse46" />
    <ellipse
       transform="matrix(0.99718,-0.07499,0.068326,0.99766,0,0)"
       cx="101.25"
       cy="164.19"
       rx="3.5388999"
       ry="10.156"
       id="ellipse48" />
    <ellipse
       cx="113.06"
       cy="144.66"
       rx="4.3431001"
       ry="7.7508001"
       id="ellipse50" />
    <ellipse
       cx="109.18"
       cy="140.50999"
       rx="2.4721999"
       ry="12.027"
       id="ellipse52" />
    <ellipse
       transform="matrix(0.92134,0.38876,-0.32839,0.94454,0,0)"
       cx="117.91"
       cy="101.61"
       rx="4.8807001"
       ry="7.5692"
       id="ellipse54" />
    <ellipse
       transform="matrix(0.99027,-0.13917,0.17413,0.98472,0,0)"
       cx="46.993"
       cy="164.23"
       rx="2.2867"
       ry="7.5580001"
       id="ellipse56" />
    <ellipse
       transform="matrix(0.98731,0.15882,0.11574,0.99328,0,0)"
       cx="57.896999"
       cy="142"
       rx="2.6273"
       ry="5.1107001"
       id="ellipse58" />
    <ellipse
       transform="matrix(0.89273,0.45058,-0.27911,0.96026,0,0)"
       cx="115.22"
       cy="100.3"
       rx="2.6135001"
       ry="4.6206002"
       id="ellipse60" />
    <ellipse
       cx="116.7"
       cy="135.23"
       rx="5.2118001"
       ry="11.645"
       id="ellipse62" />
    <ellipse
       transform="matrix(0.99644,-0.084254,0.060799,0.99815,0,0)"
       cx="107.73"
       cy="161.42999"
       rx="3.5416"
       ry="11.414"
       id="ellipse64" />
    <ellipse
       cx="118.03"
       cy="139.06"
       rx="4.3431001"
       ry="8.7146997"
       id="ellipse66" />
    <ellipse
       transform="matrix(-0.13247,0.99119,-0.99457,-0.10409,0,0)"
       cx="70.575996"
       cy="-149.03"
       rx="4.2442999"
       ry="7.8169999"
       id="ellipse68" />
    <ellipse
       transform="rotate(6.2181)"
       cx="106.42"
       cy="116.54"
       rx="16.631001"
       ry="5.7641001"
       id="ellipse70" />
  </g>
</svg>
